<svg width="128" height="53" viewBox="0 0 128 53" fill="none" xmlns="http://www.w3.org/2000/svg">
<path d="M0 0H128V53H0V0Z" fill="url(#paint0_linear_2_434)"/>
<path d="M26.7082 25L31.1082 9.71H34.2982L38.6762 25H37.3342L36.1022 20.776H29.2822L28.0722 25H26.7082ZM32.0982 10.898L29.6122 19.566H35.7722L33.2862 10.898H32.0982Z" fill="white"/>
<path d="M49.7227 19.676H45.4987V25H44.1347V9.71H49.7227C51.3507 9.71 52.546 10.106 53.3087 10.898C54.086 11.69 54.4747 12.9073 54.4747 14.55C54.4747 17.9673 52.8907 19.676 49.7227 19.676ZM45.4987 18.466H49.7227C51.952 18.466 53.0667 17.1607 53.0667 14.55C53.0667 13.3033 52.8027 12.3867 52.2747 11.8C51.7467 11.2133 50.896 10.92 49.7227 10.92H45.4987V18.466Z" fill="white"/>
<path d="M58.5477 10.942V9.71H69.5477V10.942H64.7517V25H63.3877V10.942H58.5477Z" fill="white"/>
<path d="M80.7026 45H69.1466V41.841L72.9536 37.98C74.3036 36.594 75.2396 35.532 75.7616 34.794C76.3016 34.056 76.5716 33.273 76.5716 32.445C76.5716 31.599 76.3466 31.005 75.8966 30.663C75.4646 30.321 74.8436 30.15 74.0336 30.15C72.8276 30.15 71.5136 30.258 70.0916 30.474L69.4436 30.555L69.2546 27.666C71.0186 27.126 72.8456 26.856 74.7356 26.856C78.5156 26.856 80.4056 28.557 80.4056 31.959C80.4056 33.291 80.1176 34.443 79.5416 35.415C78.9656 36.387 77.9216 37.566 76.4096 38.952L73.3046 41.76H80.7026V45Z" fill="white"/>
<path d="M94.14 45V42.057H86.58V39.222L90.981 27.18H95.085L90.306 38.817H94.14V33.822H97.866V38.817H99.567V42.057H97.866V45H94.14Z" fill="white"/>
<defs>
<linearGradient id="paint0_linear_2_434" x1="18" y1="7" x2="102" y2="61" gradientUnits="userSpaceOnUse">
<stop stop-color="#0075FF"/>
<stop offset="1" stop-color="#0029FF"/>
</linearGradient>
</defs>
</svg>
