<?xml version="1.0" encoding="utf-8"?>
<!-- Generator: Adobe Illustrator 25.2.1, SVG Export Plug-In . SVG Version: 6.00 Build 0)  -->
<svg version="1.1" id="Layer_1" xmlns="http://www.w3.org/2000/svg" xmlns:xlink="http://www.w3.org/1999/xlink" x="0px" y="0px"
	 viewBox="0 0 949.8 311.91" style="enable-background:new 0 0 949.8 311.91;" xml:space="preserve">
<g>
	<path d="M369.82,178.01c34.78,35.79,69.12,71.13,103.99,107c-1.5,0-2.36,0-3.21,0c-12.66,0-25.33-0.04-37.99,0.04
		c-1.81,0.01-3.06-0.49-4.33-1.82c-34.55-36.58-69.15-73.11-103.74-109.65c-0.57-0.6-1.09-1.25-2.21-1.7c0,37.63,0,75.26,0,113.02
		c-10.62,0-20.83,0-31.21,0c0-85.43,0-170.78,0-256.42c0.99,0,1.88,0,2.76,0c22.41,0,44.82-0.01,67.24,0
		c14.73,0.01,29.06,2.14,42.53,8.43C427.58,48.06,441,66.97,444.4,93.02c1.73,13.27,0.43,26.28-4.64,38.76
		c-7.52,18.49-21.05,31.04-39.06,39.06C391.09,175.11,380.97,177.3,369.82,178.01z M322.21,151.7c13.31,0,26.3,0.26,39.27-0.09
		c8.77-0.24,17.33-2.22,25.46-5.67c12.97-5.51,21.84-14.67,25.29-28.61c1.64-6.62,2.01-13.33,1.17-20.09
		c-1.79-14.38-8.26-25.89-20.83-33.54c-9.31-5.66-19.62-7.67-30.36-7.73c-12.67-0.07-25.33-0.03-38-0.02c-0.64,0-1.28,0.1-2.01,0.17
		C322.21,88.04,322.21,119.83,322.21,151.7z"/>
	<path d="M534.86,211.64c1.17,5.08,2.04,10.09,3.49,14.92c4.92,16.32,15.9,26.15,32.59,29.49c12.57,2.52,25.07,2.49,37.03-2.7
		c13.39-5.8,22.4-15.45,24.56-30.37c1.83-12.59-3.1-22.63-12.41-30.77c-7.69-6.73-16.78-11.03-26.18-14.8
		c-13.67-5.48-27.43-10.74-40.92-16.62c-12.34-5.38-23.27-12.94-31.78-23.61c-10.52-13.19-14.18-28.47-13.05-44.97
		c2.35-34.27,27.22-55.64,56.73-61.7c17.44-3.58,34.65-2.82,51.29,3.94c20.25,8.23,33.07,23.39,39.48,43.98
		c2.16,6.95,3.13,14.27,4.57,21.44c0.21,1.03,0.03,2.14,0.03,3.38c-9.56,0-19.11,0-28.93,0c-0.3-1.5-0.46-3.15-0.97-4.68
		c-1.99-6.07-3.39-12.47-6.28-18.08c-8.53-16.56-22.53-24.64-41.17-24.46c-7.46,0.07-14.79,1.06-21.67,4.2
		c-13.68,6.24-20.41,17.33-21.86,31.9c-1.49,15,4.62,26.3,17.08,34.49c8.79,5.78,18.68,9.05,28.35,12.85
		c12.08,4.74,24.24,9.3,36.11,14.51c9.98,4.39,18.83,10.75,26.26,18.79c15.62,16.9,19.91,36.93,14.86,58.95
		c-5.11,22.26-19.18,37.22-39.88,46.14c-15.1,6.51-30.98,8.03-47.23,6.74c-12-0.95-23.49-3.76-34.11-9.55
		c-17.73-9.67-28.31-24.87-33.37-44.09c-1.64-6.24-2.56-12.68-3.87-19.32C514.59,211.64,524.86,211.64,534.86,211.64z"/>
	<path d="M218.99,229.2c6.64,7.56,13.12,14.93,19.74,22.46c-1.44,1.28-2.69,2.48-4.04,3.56c-27.51,21.93-58.74,32.07-93.93,29.28
		c-31.48-2.49-58.9-14.3-81.21-36.85c-20.9-21.13-33.2-46.69-36.63-76.21c-4.11-35.33,5.6-66.95,27.24-94.92
		c15.13-19.57,34.72-33.1,58.14-40.99c16.59-5.59,33.68-7.74,51.18-6.77c26.32,1.46,50.11,9.95,71.33,25.57
		c2.33,1.72,4.47,3.71,6.99,5.81c-7.09,7.83-14.05,15.51-21.02,23.22c-2.56-2.06-4.97-4.09-7.48-6
		c-53.25-40.71-128.85-13.79-148.77,47.1c-11.75,35.91-5.93,69.52,19.52,97.73c28.25,31.3,63.75,40.42,104.27,28.3
		c12.37-3.7,22.97-10.85,32.58-19.44C217.49,230.5,218.12,229.96,218.99,229.2z"/>
	<path d="M810.15,68.94c-2.62,6.37-5.12,12.41-7.6,18.46c-10.12,24.72-20.23,49.44-30.36,74.15c-16.59,40.5-33.2,80.99-49.78,121.49
		c-0.45,1.1-0.73,2.02-2.33,2.01c-10.58-0.09-21.16-0.05-31.75-0.07c-0.24,0-0.47-0.09-0.99-0.21
		c36.24-85.46,72.46-170.84,108.7-256.3c8.76,0,17.42-0.05,26.08,0.1c0.75,0.01,1.79,1.23,2.17,2.12
		c5.9,13.77,11.71,27.57,17.54,41.37c12.63,29.89,25.27,59.78,37.91,89.66c17.07,40.39,34.14,80.78,51.2,121.17
		c0.25,0.59,0.46,1.2,0.8,2.13c-3.56,0-6.87,0-10.18,0c-7.25,0-14.5-0.09-21.75,0.03c-1.92,0.03-2.73-0.68-3.41-2.37
		c-20.98-52.19-42.01-104.35-63.03-156.52c-7.4-18.37-14.81-36.73-22.21-55.1C810.92,70.45,810.61,69.88,810.15,68.94z"/>
	<path d="M828.23,254.25c-12.98,0-25.76,0-38.76,0c0-11.93,0-23.7,0-35.66c12.86,0,25.72,0,38.76,0
		C828.23,230.38,828.23,242.17,828.23,254.25z"/>
</g>
</svg>
