<?xml version="1.0" encoding="utf-8"?>
<!-- Generator: Adobe Illustrator 25.2.1, SVG Export Plug-In . SVG Version: 6.00 Build 0)  -->
<svg version="1.1" id="Layer_1" xmlns="http://www.w3.org/2000/svg" xmlns:xlink="http://www.w3.org/1999/xlink" x="0px" y="0px"
	 viewBox="0 0 60 60" style="enable-background:new 0 0 60 60;" xml:space="preserve">
<style type="text/css">
	.st0{fill:none;stroke:#000000;stroke-width:2;stroke-miterlimit:10;}
</style>
<circle class="st0" cx="30" cy="30" r="26.98"/>
<g>
	<path d="M20.22,12.42h9.67c4.36,0,7.56,0.74,9.6,2.22s3.06,3.71,3.06,6.71c0,2.04-0.62,3.74-1.87,5.1
		c-1.25,1.36-3.07,2.23-5.46,2.62v0.15c2.81,0.42,4.88,1.31,6.21,2.67c1.33,1.36,1.99,3.25,1.99,5.68c0,3.25-1.08,5.75-3.23,7.5
		c-2.15,1.75-5.21,2.63-9.17,2.63H20.22V12.42z M22.68,28.12h7.77c3.31,0,5.72-0.55,7.22-1.65c1.5-1.1,2.26-2.83,2.26-5.17
		c0-2.35-0.85-4.05-2.54-5.11c-1.7-1.06-4.23-1.59-7.59-1.59h-7.12V28.12z M22.68,30.29v15.22h8.3c6.53,0,9.79-2.65,9.79-7.96
		c0-4.84-3.44-7.26-10.32-7.26H22.68z"/>
</g>
</svg>
