<?xml version="1.0" encoding="utf-8"?>
<!-- Generator: Adobe Illustrator 25.2.1, SVG Export Plug-In . SVG Version: 6.00 Build 0)  -->
<svg version="1.1" id="Layer_1" xmlns="http://www.w3.org/2000/svg" xmlns:xlink="http://www.w3.org/1999/xlink" x="0px" y="0px"
	 viewBox="0 0 60 60" style="enable-background:new 0 0 60 60;" xml:space="preserve">
<style type="text/css">
	.st0{fill:none;stroke:#000000;stroke-width:2;stroke-miterlimit:10;}
</style>
<circle class="st0" cx="30" cy="30" r="26.98"/>
<g>
	<path d="M31.16,15.07c-4.24,0-7.58,1.36-10.02,4.07s-3.66,6.43-3.66,11.15c0,4.83,1.15,8.58,3.45,11.25s5.58,4,9.86,4
		c2.84,0,5.45-0.36,7.82-1.09v2.08c-2.24,0.79-5.03,1.18-8.38,1.18c-4.75,0-8.49-1.54-11.22-4.6c-2.73-3.07-4.1-7.36-4.1-12.86
		c0-3.44,0.65-6.47,1.96-9.09c1.3-2.62,3.18-4.65,5.62-6.07c2.44-1.43,5.29-2.14,8.53-2.14c3.3,0,6.25,0.62,8.86,1.85l-0.95,2.13
		C36.46,15.68,33.87,15.07,31.16,15.07z"/>
</g>
</svg>
