<?xml version="1.0" encoding="utf-8"?>
<!-- Generator: Adobe Illustrator 25.2.1, SVG Export Plug-In . SVG Version: 6.00 Build 0)  -->
<svg version="1.1" id="Layer_1" xmlns="http://www.w3.org/2000/svg" xmlns:xlink="http://www.w3.org/1999/xlink" x="0px" y="0px"
	 viewBox="0 0 60 60" style="enable-background:new 0 0 60 60;" xml:space="preserve">
<style type="text/css">
	.st0{fill:none;stroke:#000000;stroke-width:2;stroke-miterlimit:10;}
</style>
<circle class="st0" cx="30" cy="30" r="26.98"/>
<g>
	<path d="M39.94,21.17c0,2.07-0.65,3.81-1.95,5.23c-1.3,1.42-3.05,2.32-5.24,2.72v0.14c2.68,0.33,4.72,1.19,6.12,2.56
		c1.4,1.37,2.1,3.21,2.1,5.53c0,3.12-1.06,5.54-3.19,7.25c-2.12,1.71-5.18,2.57-9.17,2.57c-3.4,0-6.36-0.63-8.88-1.9v-2.26
		c1.28,0.67,2.71,1.2,4.3,1.58c1.59,0.38,3.09,0.57,4.49,0.57c3.36,0,5.89-0.68,7.58-2.04c1.69-1.36,2.54-3.28,2.54-5.77
		c0-2.21-0.87-3.9-2.59-5.09c-1.73-1.19-4.27-1.78-7.62-1.78h-3.61v-2.19h3.65c2.77,0,4.97-0.66,6.59-1.98
		c1.62-1.32,2.43-3.1,2.43-5.36c0-1.86-0.66-3.35-1.98-4.46c-1.32-1.12-3.04-1.68-5.17-1.68c-1.66,0-3.17,0.23-4.54,0.7
		s-2.91,1.26-4.61,2.39l-1.12-1.53c1.29-1.08,2.85-1.94,4.68-2.57c1.83-0.63,3.68-0.95,5.55-0.95c3.07,0,5.45,0.73,7.13,2.18
		C39.1,16.47,39.94,18.52,39.94,21.17z"/>
</g>
</svg>
