<?xml version="1.0" encoding="utf-8"?>
<!-- Generator: Adobe Illustrator 25.2.1, SVG Export Plug-In . SVG Version: 6.00 Build 0)  -->
<svg version="1.1" id="Layer_1" xmlns="http://www.w3.org/2000/svg" xmlns:xlink="http://www.w3.org/1999/xlink" x="0px" y="0px"
	 viewBox="0 0 60 60" style="enable-background:new 0 0 60 60;" xml:space="preserve">
<style type="text/css">
	.st0{fill:none;stroke:#000000;stroke-width:2;stroke-miterlimit:10;}
</style>
<circle class="st0" cx="30" cy="30" r="26.98"/>
<g>
	<path d="M29.58,26.39c3.56,0,6.36,0.86,8.4,2.58c2.04,1.72,3.07,4.08,3.07,7.09c0,3.42-1.06,6.08-3.19,7.98
		c-2.13,1.9-5.06,2.85-8.8,2.85c-1.66,0-3.23-0.16-4.72-0.49c-1.49-0.33-2.74-0.79-3.74-1.4v-2.35c1.64,0.84,3.1,1.42,4.38,1.74
		c1.28,0.33,2.64,0.49,4.08,0.49c2.92,0,5.26-0.77,7.02-2.31c1.76-1.54,2.64-3.63,2.64-6.26c0-2.48-0.86-4.42-2.58-5.84
		c-1.72-1.41-4.05-2.12-7-2.12c-1.98,0-4.04,0.3-6.2,0.89l-1.37-0.89l1.32-15.25h16.05v2.19H25.05l-1.03,11.77
		C26.39,26.61,28.25,26.39,29.58,26.39z"/>
</g>
</svg>
