<?xml version="1.0" encoding="utf-8"?>
<!-- Generator: Adobe Illustrator 25.2.1, SVG Export Plug-In . SVG Version: 6.00 Build 0)  -->
<svg version="1.1" id="Layer_1" xmlns="http://www.w3.org/2000/svg" xmlns:xlink="http://www.w3.org/1999/xlink" x="0px" y="0px"
	 viewBox="0 0 60 60" style="enable-background:new 0 0 60 60;" xml:space="preserve">
<style type="text/css">
	.st0{fill:none;stroke:#000000;stroke-width:2;stroke-miterlimit:10;}
</style>
<circle class="st0" cx="30" cy="30" r="26.98"/>
<g>
	<path d="M18.6,32.04c0-4.4,0.6-8.1,1.79-11.1c1.2-3,2.89-5.23,5.09-6.68c2.2-1.45,4.85-2.18,7.95-2.18c1.45,0,2.78,0.18,3.98,0.53
		v2.04c-1.13-0.42-2.48-0.62-4.07-0.62c-3.81,0-6.78,1.37-8.9,4.12c-2.12,2.75-3.31,6.74-3.58,11.99h0.3
		c1.17-1.51,2.51-2.65,4.03-3.43c1.51-0.77,3.11-1.16,4.79-1.16c3.16,0,5.64,0.9,7.42,2.71c1.78,1.8,2.67,4.3,2.67,7.47
		c0,3.46-0.94,6.18-2.81,8.18c-1.87,2-4.4,3-7.58,3c-3.43,0-6.13-1.31-8.11-3.92S18.6,36.73,18.6,32.04z M29.68,44.88
		c2.53,0,4.5-0.79,5.9-2.38c1.4-1.59,2.11-3.86,2.11-6.8c0-2.59-0.69-4.61-2.08-6.06c-1.39-1.45-3.28-2.18-5.67-2.18
		c-1.57,0-3.04,0.35-4.39,1.04c-1.35,0.69-2.43,1.62-3.23,2.77c-0.8,1.15-1.2,2.33-1.2,3.53c0,1.71,0.38,3.36,1.15,4.94
		s1.8,2.83,3.1,3.76C26.67,44.42,28.11,44.88,29.68,44.88z"/>
</g>
</svg>
