<?xml version="1.0" encoding="utf-8"?>
<!-- Generator: Adobe Illustrator 25.2.1, SVG Export Plug-In . SVG Version: 6.00 Build 0)  -->
<svg version="1.1" id="Layer_1" xmlns="http://www.w3.org/2000/svg" xmlns:xlink="http://www.w3.org/1999/xlink" x="0px" y="0px"
	 viewBox="0 0 60 60" style="enable-background:new 0 0 60 60;" xml:space="preserve">
<style type="text/css">
	.st0{fill:none;stroke:#000000;stroke-width:2;stroke-miterlimit:10;}
</style>
<circle class="st0" cx="30" cy="30" r="26.98"/>
<g>
	<path d="M40.28,45.92H18.97v-2.05l9.06-9.45c2.55-2.64,4.33-4.66,5.36-6.06s1.78-2.73,2.26-4.01c0.48-1.27,0.72-2.61,0.72-4.01
		c0-2.03-0.67-3.69-2-4.96c-1.34-1.27-3.07-1.91-5.19-1.91c-2.84,0-5.56,1.03-8.15,3.1l-1.26-1.61c2.84-2.39,5.99-3.59,9.46-3.59
		c2.97,0,5.3,0.79,7,2.38c1.7,1.58,2.55,3.77,2.55,6.54c0,2.25-0.57,4.43-1.71,6.53s-3.22,4.7-6.25,7.79l-8.73,8.97v0.09h18.21
		V45.92z"/>
</g>
</svg>
