<?xml version="1.0" encoding="utf-8"?>
<!-- Generator: Adobe Illustrator 25.2.1, SVG Export Plug-In . SVG Version: 6.00 Build 0)  -->
<svg version="1.1" id="Layer_1" xmlns="http://www.w3.org/2000/svg" xmlns:xlink="http://www.w3.org/1999/xlink" x="0px" y="0px"
	 viewBox="0 0 500 299.8" style="enable-background:new 0 0 500 299.8;" xml:space="preserve">
<style type="text/css">
	.st0{display:none;}
	.st1{display:inline;}
	.st2{fill:none;stroke:#000000;stroke-width:2;stroke-miterlimit:10;}
</style>
<image style="display:none;overflow:visible;enable-background:new    ;" width="768" height="720" xlink:href="../Screen%20Shot%202021-03-21%20at%2012.45.43%20PM.png"  transform="matrix(0.5 0 0 0.5 52.12 81.5)">
</image>
<g class="st0">
	<path class="st1" d="M264.1,275.8H224v51.6h-55.5v-51.6H36.1v-38.3L152,81.5h59.7L104.2,229.4h66.1v-46h53.8v46h40.1L264.1,275.8
		L264.1,275.8z"/>
	<path class="st1" d="M448.6,250.2c0,43.6-32,81.5-102.2,81.5c-34.1,0-69.9-9.5-93.8-26.4l22.5-43.6c18.6,14,44.3,22.1,69.9,22.1
		c28.5,0,46-12,46-32c0-19.3-12.6-32-57.3-32h-62.9l12.6-138.5h150V127H330.9l-3.9,46.7h20C419.8,173.9,448.6,206.6,448.6,250.2z"/>
</g>
<g class="st0">
	<path class="st1" d="M115.3,378.2h2.3l3.2,8.2c0.7,1.9,1.1,3.2,1.3,4.1h0.1c0.1-0.5,0.3-1.2,0.7-2.3c0.4-1.1,1.6-4.4,3.6-10h2.4
		l-6.2,16.5c-0.6,1.6-1.3,2.8-2.2,3.5c-0.8,0.7-1.8,1-3,1c-0.7,0-1.3-0.1-2-0.2v-1.8c0.5,0.1,1,0.2,1.6,0.2c1.5,0,2.6-0.8,3.2-2.5
		l0.8-2.1L115.3,378.2z"/>
	<path class="st1" d="M137.3,392.9c-2.1,0-3.8-0.6-5.1-2s-1.9-3.1-1.9-5.4s0.6-4.2,1.7-5.5s2.7-2.1,4.6-2.1c1.8,0,3.2,0.6,4.3,1.8
		c1.1,1.2,1.6,2.8,1.6,4.7v1.4h-9.9c0,1.7,0.5,3,1.3,3.9s2,1.3,3.4,1.3c1.6,0,3.1-0.3,4.6-1v2c-0.8,0.3-1.5,0.6-2.2,0.7
		C139.1,392.9,138.3,392.9,137.3,392.9z M136.7,379.8c-1.2,0-2.1,0.4-2.8,1.1s-1.1,1.8-1.2,3.1h7.6c0-1.4-0.3-2.4-0.9-3.2
		C138.8,380.2,137.9,379.8,136.7,379.8z"/>
	<path class="st1" d="M155.3,392.7l-0.4-2.1h-0.1c-0.7,0.9-1.4,1.5-2.2,1.8s-1.6,0.5-2.7,0.5c-1.4,0-2.6-0.4-3.4-1.1
		s-1.2-1.8-1.2-3.1c0-2.9,2.3-4.5,7-4.6l2.4-0.1v-0.9c0-1.1-0.2-2-0.7-2.5s-1.3-0.8-2.3-0.8c-1.2,0-2.6,0.4-4.1,1.1l-0.7-1.7
		c0.7-0.4,1.5-0.7,2.3-0.9c0.9-0.2,1.7-0.3,2.6-0.3c1.7,0,3,0.4,3.8,1.1c0.8,0.8,1.2,2,1.2,3.7v9.9H155.3z M150.3,391.1
		c1.4,0,2.4-0.4,3.2-1.1c0.8-0.8,1.2-1.8,1.2-3.1v-1.3l-2.2,0.1c-1.7,0.1-3,0.3-3.8,0.8s-1.1,1.2-1.1,2.2c0,0.8,0.2,1.4,0.7,1.8
		C148.8,390.9,149.5,391.1,150.3,391.1z"/>
	<path class="st1" d="M168,378c0.6,0,1.2,0,1.7,0.2l-0.3,2c-0.6-0.1-1.1-0.2-1.6-0.2c-1.2,0-2.2,0.5-3,1.4s-1.2,2.1-1.2,3.5v7.8
		h-2.2v-14.5h1.8l0.2,2.7h0.1c0.5-0.9,1.2-1.7,1.9-2.2S167.1,378,168,378z"/>
	<path class="st1" d="M181.7,388.7c0,1.3-0.5,2.4-1.5,3.1s-2.4,1.1-4.2,1.1c-1.9,0-3.4-0.3-4.5-0.9v-2c0.7,0.4,1.4,0.6,2.2,0.8
		c0.8,0.2,1.6,0.3,2.3,0.3c1.1,0,2-0.2,2.6-0.5c0.6-0.4,0.9-0.9,0.9-1.7c0-0.6-0.2-1-0.7-1.4s-1.4-0.9-2.9-1.4
		c-1.3-0.5-2.3-0.9-2.9-1.3c-0.6-0.4-1-0.8-1.3-1.3s-0.4-1-0.4-1.7c0-1.2,0.5-2.1,1.4-2.8c1-0.7,2.3-1,3.9-1c1.6,0,3.1,0.3,4.6,1
		l-0.8,1.8c-1.4-0.6-2.8-0.9-3.9-0.9c-1,0-1.8,0.2-2.4,0.5s-0.8,0.8-0.8,1.3c0,0.4,0.1,0.7,0.3,1s0.5,0.5,1,0.8s1.3,0.6,2.5,1.1
		c1.7,0.6,2.9,1.2,3.5,1.9C181.4,387,181.7,387.8,181.7,388.7z"/>
	<path class="st1" d="M204.8,385.4c0,2.4-0.6,4.2-1.8,5.5s-2.8,2-4.9,2c-1.3,0-2.4-0.3-3.4-0.9s-1.8-1.5-2.3-2.6s-0.8-2.5-0.8-4
		c0-2.4,0.6-4.2,1.8-5.5s2.8-2,4.9-2c2,0,3.6,0.7,4.8,2C204.2,381.3,204.8,383.1,204.8,385.4z M193.8,385.4c0,1.9,0.4,3.2,1.1,4.2
		s1.8,1.5,3.3,1.5s2.5-0.5,3.3-1.4c0.7-1,1.1-2.4,1.1-4.2c0-1.8-0.4-3.2-1.1-4.2c-0.7-1-1.8-1.4-3.3-1.4c-1.4,0-2.5,0.5-3.2,1.4
		S193.8,383.6,193.8,385.4z"/>
	<path class="st1" d="M215.1,379.9h-3.7v12.8h-2.2v-12.8h-2.6v-1l2.6-0.8v-0.8c0-3.5,1.6-5.3,4.6-5.3c0.8,0,1.7,0.1,2.7,0.5
		l-0.6,1.8c-0.8-0.3-1.6-0.4-2.2-0.4c-0.8,0-1.4,0.3-1.8,0.8c-0.4,0.5-0.6,1.4-0.6,2.6v0.9h3.7L215.1,379.9L215.1,379.9z"/>
	<path class="st1" d="M233.7,392.7l-0.4-2.1h-0.1c-0.7,0.9-1.4,1.5-2.2,1.8s-1.6,0.5-2.7,0.5c-1.4,0-2.6-0.4-3.4-1.1
		s-1.2-1.8-1.2-3.1c0-2.9,2.3-4.5,7-4.6l2.4-0.1v-0.9c0-1.1-0.2-2-0.7-2.5s-1.3-0.8-2.3-0.8c-1.2,0-2.6,0.4-4.1,1.1l-0.7-1.7
		c0.7-0.4,1.5-0.7,2.3-0.9c0.9-0.2,1.7-0.3,2.6-0.3c1.7,0,3,0.4,3.8,1.1c0.8,0.8,1.2,2,1.2,3.7v9.9H233.7z M228.7,391.1
		c1.4,0,2.4-0.4,3.2-1.1c0.8-0.8,1.2-1.8,1.2-3.1v-1.3l-2.2,0.1c-1.7,0.1-3,0.3-3.8,0.8s-1.1,1.2-1.1,2.2c0,0.8,0.2,1.4,0.7,1.8
		C227.2,390.9,227.9,391.1,228.7,391.1z"/>
	<path class="st1" d="M246.4,378c0.6,0,1.2,0,1.7,0.2l-0.3,2c-0.6-0.1-1.1-0.2-1.6-0.2c-1.2,0-2.2,0.5-3,1.4s-1.2,2.1-1.2,3.5v7.8
		h-2.2v-14.5h1.8l0.2,2.7h0.1c0.5-0.9,1.2-1.7,1.9-2.2S245.5,378,246.4,378z"/>
	<path class="st1" d="M256.6,392.9c-2.1,0-3.7-0.6-4.9-1.9c-1.1-1.3-1.7-3.1-1.7-5.5s0.6-4.3,1.8-5.6s2.8-2,5-2
		c0.7,0,1.4,0.1,2.1,0.2s1.2,0.3,1.6,0.5l-0.7,1.9c-0.5-0.2-1-0.4-1.6-0.5s-1.1-0.2-1.5-0.2c-2.9,0-4.4,1.9-4.4,5.6
		c0,1.8,0.4,3.1,1.1,4.1c0.7,1,1.8,1.4,3.2,1.4c1.2,0,2.4-0.3,3.7-0.8v1.9C259.3,392.7,258.1,392.9,256.6,392.9z"/>
	<path class="st1" d="M273.6,392.7v-9.4c0-1.2-0.3-2.1-0.8-2.6c-0.5-0.6-1.4-0.9-2.5-0.9c-1.5,0-2.6,0.4-3.3,1.2
		c-0.7,0.8-1,2.2-1,4.1v7.5h-2.2v-20.5h2.2v6.2c0,0.8,0,1.4-0.1,1.9h0.1c0.4-0.7,1-1.2,1.8-1.6s1.7-0.6,2.7-0.6c1.8,0,3.1,0.4,4,1.3
		s1.3,2.2,1.3,4v9.4H273.6L273.6,392.7z"/>
	<path class="st1" d="M280.1,374.3c0-0.5,0.1-0.9,0.4-1.1s0.5-0.4,0.9-0.4s0.6,0.1,0.9,0.4c0.2,0.2,0.4,0.6,0.4,1.1
		s-0.1,0.9-0.4,1.1s-0.6,0.4-0.9,0.4c-0.4,0-0.7-0.1-0.9-0.4C280.2,375.2,280.1,374.8,280.1,374.3z M282.4,392.7h-2.2v-14.5h2.2
		V392.7z"/>
	<path class="st1" d="M291.7,391.1c0.4,0,0.8,0,1.1-0.1c0.4-0.1,0.6-0.1,0.9-0.2v1.7c-0.2,0.1-0.6,0.2-1,0.3
		c-0.5,0.1-0.9,0.1-1.2,0.1c-2.8,0-4.2-1.5-4.2-4.4v-8.6h-2.1v-1l2.1-0.9l0.9-3.1h1.3v3.4h4.2v1.7h-4.2v8.5c0,0.9,0.2,1.5,0.6,2
		C290.5,390.9,291,391.1,291.7,391.1z"/>
	<path class="st1" d="M302.7,392.9c-2.1,0-3.8-0.6-5.1-2c-1.2-1.3-1.9-3.1-1.9-5.4s0.6-4.2,1.7-5.5s2.7-2.1,4.6-2.1
		c1.8,0,3.2,0.6,4.3,1.8c1,1.2,1.6,2.8,1.6,4.7v1.4h-10c0,1.7,0.5,3,1.3,3.9s2,1.3,3.4,1.3c1.5,0,3.1-0.3,4.6-1v2
		c-0.8,0.3-1.5,0.6-2.2,0.7C304.5,392.9,303.7,392.9,302.7,392.9z M302.1,379.8c-1.2,0-2.1,0.4-2.8,1.1c-0.7,0.8-1.1,1.8-1.2,3.1
		h7.5c0-1.4-0.3-2.4-0.9-3.2C304.1,380.2,303.3,379.8,302.1,379.8z"/>
	<path class="st1" d="M317.5,392.9c-2.1,0-3.7-0.6-4.9-1.9c-1.1-1.3-1.7-3.1-1.7-5.5s0.6-4.3,1.8-5.6s2.8-2,5-2
		c0.7,0,1.4,0.1,2.1,0.2s1.2,0.3,1.6,0.5l-0.7,1.9c-0.5-0.2-1-0.4-1.6-0.5s-1.1-0.2-1.5-0.2c-2.9,0-4.4,1.9-4.4,5.6
		c0,1.8,0.4,3.1,1.1,4.1s1.8,1.4,3.2,1.4c1.2,0,2.4-0.3,3.7-0.8v1.9C320.2,392.7,319,392.9,317.5,392.9z"/>
	<path class="st1" d="M329.3,391.1c0.4,0,0.8,0,1.1-0.1c0.4-0.1,0.6-0.1,0.9-0.2v1.7c-0.2,0.1-0.6,0.2-1,0.3
		c-0.5,0.1-0.9,0.1-1.2,0.1c-2.8,0-4.2-1.5-4.2-4.4v-8.6h-2.1v-1l2.1-0.9l0.9-3.1h1.3v3.4h4.2v1.7H327v8.5c0,0.9,0.2,1.5,0.6,2
		C328,390.9,328.5,391.1,329.3,391.1z"/>
	<path class="st1" d="M336.2,378.2v9.4c0,1.2,0.3,2.1,0.8,2.6c0.5,0.6,1.4,0.9,2.5,0.9c1.5,0,2.6-0.4,3.3-1.2s1-2.2,1-4v-7.6h2.2
		v14.5h-1.8l-0.3-1.9h-0.1c-0.5,0.7-1.1,1.3-1.9,1.6c-0.8,0.4-1.7,0.6-2.7,0.6c-1.8,0-3.1-0.4-4-1.2c-0.9-0.8-1.3-2.2-1.3-4v-9.5
		L336.2,378.2L336.2,378.2z"/>
	<path class="st1" d="M357.3,378c0.6,0,1.2,0,1.7,0.2l-0.3,2c-0.6-0.1-1.1-0.2-1.6-0.2c-1.2,0-2.2,0.5-3,1.4s-1.2,2.1-1.2,3.5v7.8
		h-2.2v-14.5h1.8l0.2,2.7h0.1c0.5-0.9,1.2-1.7,1.9-2.2S356.4,378,357.3,378z"/>
	<path class="st1" d="M367.8,392.9c-2.1,0-3.8-0.6-5.1-2c-1.2-1.3-1.9-3.1-1.9-5.4s0.6-4.2,1.7-5.5s2.7-2.1,4.6-2.1
		c1.8,0,3.2,0.6,4.3,1.8c1,1.2,1.6,2.8,1.6,4.7v1.4h-10c0,1.7,0.5,3,1.3,3.9s2,1.3,3.4,1.3c1.5,0,3.1-0.3,4.6-1v2
		c-0.8,0.3-1.5,0.6-2.2,0.7C369.6,392.9,368.8,392.9,367.8,392.9z M367.2,379.8c-1.2,0-2.1,0.4-2.8,1.1c-0.7,0.8-1.1,1.8-1.2,3.1
		h7.5c0-1.4-0.3-2.4-0.9-3.2C369.3,380.2,368.4,379.8,367.2,379.8z"/>
	<path class="st1" d="M379.2,389.5l0.2,0.3c-0.2,0.9-0.6,1.9-1,3.1s-0.9,2.2-1.3,3.2h-1.6c0.2-0.9,0.5-2,0.8-3.4
		c0.3-1.3,0.5-2.4,0.6-3.2H379.2L379.2,389.5z"/>
	<path class="st1" d="M124.3,425.3c-0.9,0-1.8-0.2-2.6-0.5c-0.8-0.4-1.4-0.9-2-1.6h-0.2c0.1,0.8,0.2,1.6,0.2,2.4v6h-2.2v-20.9h1.8
		l0.3,2h0.1c0.6-0.8,1.2-1.4,2-1.7s1.6-0.5,2.6-0.5c1.9,0,3.4,0.7,4.4,2s1.6,3.1,1.6,5.5s-0.5,4.2-1.6,5.5
		C127.7,424.7,126.2,425.3,124.3,425.3z M124,412.2c-1.5,0-2.5,0.4-3.2,1.2s-1,2.1-1,3.9v0.5c0,2,0.3,3.5,1,4.4s1.8,1.3,3.3,1.3
		c1.2,0,2.2-0.5,2.9-1.5c0.7-1,1.1-2.4,1.1-4.2c0-1.8-0.3-3.2-1.1-4.1C126.3,412.7,125.3,412.2,124,412.2z"/>
	<path class="st1" d="M136.4,425.1h-2.2v-20.5h2.2V425.1z"/>
	<path class="st1" d="M149.9,425.1l-0.4-2.1h-0.1c-0.7,0.9-1.4,1.5-2.2,1.8s-1.6,0.5-2.7,0.5c-1.4,0-2.6-0.4-3.4-1.1
		s-1.2-1.8-1.2-3.1c0-2.9,2.3-4.5,7-4.6l2.4-0.1v-0.9c0-1.1-0.2-2-0.7-2.5s-1.3-0.8-2.3-0.8c-1.2,0-2.6,0.4-4.1,1.1l-0.7-1.7
		c0.7-0.4,1.5-0.7,2.3-0.9c0.9-0.2,1.7-0.3,2.6-0.3c1.7,0,3,0.4,3.8,1.1c0.8,0.8,1.2,2,1.2,3.7v9.9H149.9z M144.9,423.5
		c1.4,0,2.4-0.4,3.2-1.1c0.8-0.8,1.2-1.8,1.2-3.1V418l-2.2,0.1c-1.7,0.1-3,0.3-3.8,0.8s-1.1,1.2-1.1,2.2c0,0.8,0.2,1.4,0.7,1.8
		C143.4,423.3,144.1,423.5,144.9,423.5z"/>
	<path class="st1" d="M165.9,425.1v-9.4c0-1.2-0.3-2.1-0.8-2.6s-1.4-0.9-2.5-0.9c-1.5,0-2.6,0.4-3.3,1.2s-1.1,2.2-1.1,4v7.6H156
		v-14.5h1.8l0.4,2h0.1c0.4-0.7,1.1-1.3,1.9-1.6c0.8-0.4,1.7-0.6,2.7-0.6c1.7,0,3.1,0.4,3.9,1.3c0.9,0.8,1.3,2.2,1.3,4v9.4
		L165.9,425.1L165.9,425.1z"/>
	<path class="st1" d="M182.5,425.1v-9.4c0-1.2-0.3-2.1-0.8-2.6s-1.4-0.9-2.5-0.9c-1.5,0-2.6,0.4-3.3,1.2s-1.1,2.2-1.1,4v7.6h-2.2
		v-14.5h1.8l0.4,2h0.1c0.4-0.7,1.1-1.3,1.9-1.6c0.8-0.4,1.7-0.6,2.7-0.6c1.7,0,3.1,0.4,3.9,1.3c0.9,0.8,1.3,2.2,1.3,4v9.4
		L182.5,425.1L182.5,425.1z"/>
	<path class="st1" d="M189,406.7c0-0.5,0.1-0.9,0.4-1.1s0.6-0.4,0.9-0.4c0.4,0,0.6,0.1,0.9,0.4s0.4,0.6,0.4,1.1s-0.1,0.9-0.4,1.1
		c-0.2,0.2-0.6,0.4-0.9,0.4c-0.4,0-0.7-0.1-0.9-0.4C189.1,407.6,189,407.2,189,406.7z M191.4,425.1h-2.2v-14.5h2.2V425.1z"/>
	<path class="st1" d="M205.9,425.1v-9.4c0-1.2-0.3-2.1-0.8-2.6s-1.4-0.9-2.5-0.9c-1.5,0-2.6,0.4-3.3,1.2s-1.1,2.2-1.1,4v7.6H196
		v-14.5h1.8l0.4,2h0.1c0.4-0.7,1.1-1.3,1.9-1.6c0.8-0.4,1.7-0.6,2.7-0.6c1.7,0,3.1,0.4,3.9,1.3c0.9,0.8,1.3,2.2,1.3,4v9.4
		L205.9,425.1L205.9,425.1z"/>
	<path class="st1" d="M224.4,410.6v1.4l-2.7,0.3c0.2,0.3,0.5,0.7,0.7,1.2s0.3,1.1,0.3,1.7c0,1.4-0.5,2.5-1.4,3.4s-2.3,1.3-4,1.3
		c-0.4,0-0.8,0-1.2-0.1c-0.9,0.5-1.4,1.1-1.4,1.9c0,0.4,0.2,0.7,0.5,0.9s0.9,0.3,1.7,0.3h2.6c1.6,0,2.8,0.3,3.6,1s1.3,1.6,1.3,2.9
		c0,1.6-0.6,2.8-1.9,3.7s-3.2,1.3-5.6,1.3c-1.9,0-3.4-0.4-4.4-1s-1.5-1.7-1.5-3c0-0.9,0.3-1.6,0.8-2.3c0.6-0.6,1.4-1.1,2.4-1.3
		c-0.4-0.2-0.7-0.4-0.9-0.8s-0.4-0.8-0.4-1.2c0-0.5,0.1-1,0.4-1.4c0.3-0.4,0.7-0.8,1.3-1.1c-0.8-0.3-1.4-0.8-1.8-1.6
		c-0.5-0.7-0.7-1.6-0.7-2.5c0-1.6,0.5-2.8,1.4-3.7c0.9-0.9,2.3-1.3,4-1.3c0.8,0,1.4,0.1,2,0.3L224.4,410.6L224.4,410.6z
		 M212.9,427.5c0,0.8,0.3,1.4,1,1.8s1.6,0.6,2.8,0.6c1.8,0,3.2-0.3,4.1-0.8c0.9-0.5,1.3-1.3,1.3-2.2c0-0.8-0.2-1.3-0.7-1.6
		c-0.5-0.3-1.4-0.5-2.7-0.5H216c-1,0-1.8,0.2-2.3,0.7S212.9,426.6,212.9,427.5z M214.1,415.2c0,1,0.3,1.8,0.9,2.3s1.4,0.8,2.4,0.8
		c2.1,0,3.2-1,3.2-3.1c0-2.2-1.1-3.3-3.2-3.3c-1,0-1.8,0.3-2.4,0.8S214.1,414.2,214.1,415.2z"/>
	<path class="st1" d="M229.6,421.9l0.2,0.3c-0.2,0.9-0.6,1.9-1,3.1s-0.9,2.2-1.3,3.2h-1.6c0.2-0.9,0.5-2,0.8-3.4
		c0.3-1.3,0.5-2.4,0.6-3.2H229.6L229.6,421.9z"/>
	<path class="st1" d="M240.1,420.1c0-1.1,0.3-2.1,0.9-3s1.7-1.8,3.3-2.7c-0.8-0.8-1.2-1.5-1.5-1.9s-0.5-0.9-0.6-1.4
		c-0.2-0.5-0.2-1-0.2-1.5c0-1.3,0.4-2.4,1.3-3.1s2.1-1.1,3.6-1.1c1.4,0,2.5,0.4,3.4,1.1s1.2,1.8,1.2,3.1c0,0.9-0.3,1.8-0.9,2.6
		c-0.6,0.8-1.6,1.6-3,2.4l5.4,5.1c0.5-0.5,0.9-1.2,1.2-1.9c0.3-0.7,0.5-1.5,0.8-2.4h2.2c-0.6,2.5-1.5,4.4-2.7,5.7l3.9,3.8h-3
		l-2.4-2.4c-1,0.9-2.1,1.6-3.2,2s-2.3,0.6-3.6,0.6c-1.9,0-3.4-0.5-4.4-1.4C240.7,423,240.1,421.7,240.1,420.1z M246.2,423.4
		c2.1,0,3.9-0.7,5.3-2l-5.8-5.6c-1,0.6-1.7,1.1-2.1,1.5c-0.4,0.4-0.7,0.8-0.9,1.3s-0.3,1-0.3,1.5c0,1,0.3,1.8,1,2.5
		C244.1,423.1,245,423.4,246.2,423.4z M244.1,409.6c0,0.6,0.2,1.2,0.5,1.7s0.9,1.2,1.6,2c1.1-0.7,1.9-1.3,2.4-1.8
		c0.4-0.6,0.7-1.2,0.7-1.9c0-0.7-0.2-1.2-0.7-1.6c-0.4-0.4-1.1-0.6-1.8-0.6c-0.8,0-1.4,0.2-1.9,0.6
		C244.4,408.4,244.1,408.9,244.1,409.6z"/>
	<path class="st1" d="M277.5,423.1h-0.1c-1,1.5-2.5,2.2-4.5,2.2c-1.9,0-3.4-0.6-4.4-1.9s-1.6-3.1-1.6-5.5s0.5-4.2,1.6-5.5
		s2.5-2,4.4-2c2,0,3.5,0.7,4.5,2.1h0.2l-0.1-1v-1v-5.9h2.2v20.5h-1.8L277.5,423.1z M273.2,423.5c1.5,0,2.6-0.4,3.2-1.2s1-2.1,1-3.9
		v-0.5c0-2-0.3-3.5-1-4.4s-1.8-1.3-3.3-1.3c-1.3,0-2.3,0.5-3,1.5s-1,2.4-1,4.2c0,1.9,0.3,3.2,1,4.2S271.9,423.5,273.2,423.5z"/>
	<path class="st1" d="M290.4,425.3c-2.1,0-3.8-0.6-5.1-2c-1.2-1.3-1.9-3.1-1.9-5.4s0.6-4.2,1.7-5.5s2.7-2.1,4.6-2.1
		c1.8,0,3.2,0.6,4.3,1.8c1,1.2,1.6,2.8,1.6,4.7v1.4h-10c0,1.7,0.5,3,1.3,3.9s2,1.3,3.4,1.3c1.5,0,3.1-0.3,4.6-1v2
		c-0.8,0.3-1.5,0.6-2.2,0.7C292.2,425.3,291.3,425.3,290.4,425.3z M289.8,412.2c-1.2,0-2.1,0.4-2.8,1.1c-0.7,0.8-1.1,1.8-1.2,3.1
		h7.5c0-1.4-0.3-2.4-0.9-3.2C291.8,412.6,290.9,412.2,289.8,412.2z"/>
	<path class="st1" d="M308.7,421.1c0,1.3-0.5,2.4-1.5,3.1s-2.4,1.1-4.2,1.1c-1.9,0-3.4-0.3-4.5-0.9v-2c0.7,0.4,1.4,0.6,2.2,0.8
		c0.8,0.2,1.6,0.3,2.3,0.3c1.1,0,2-0.2,2.6-0.5c0.6-0.4,0.9-0.9,0.9-1.7c0-0.6-0.2-1-0.7-1.4s-1.4-0.9-2.9-1.4
		c-1.3-0.5-2.3-0.9-2.9-1.3s-1-0.8-1.3-1.3s-0.4-1-0.4-1.7c0-1.2,0.5-2.1,1.4-2.8c1-0.7,2.3-1,3.9-1s3.1,0.3,4.6,1l-0.8,1.8
		c-1.5-0.6-2.8-0.9-3.9-0.9c-1,0-1.8,0.2-2.4,0.5s-0.8,0.8-0.8,1.3c0,0.4,0.1,0.7,0.3,1c0.2,0.3,0.5,0.5,1,0.8s1.3,0.6,2.5,1.1
		c1.7,0.6,2.9,1.2,3.5,1.9C308.4,419.4,308.7,420.2,308.7,421.1z"/>
	<path class="st1" d="M312.1,406.7c0-0.5,0.1-0.9,0.4-1.1s0.5-0.4,0.9-0.4s0.6,0.1,0.9,0.4c0.2,0.2,0.4,0.6,0.4,1.1
		s-0.1,0.9-0.4,1.1s-0.6,0.4-0.9,0.4c-0.4,0-0.7-0.1-0.9-0.4C312.2,407.6,312.1,407.2,312.1,406.7z M314.5,425.1h-2.2v-14.5h2.2
		V425.1z"/>
	<path class="st1" d="M330.9,410.6v1.4l-2.7,0.3c0.2,0.3,0.5,0.7,0.7,1.2s0.3,1.1,0.3,1.7c0,1.4-0.5,2.5-1.5,3.4s-2.3,1.3-4,1.3
		c-0.4,0-0.8,0-1.2-0.1c-0.9,0.5-1.4,1.1-1.4,1.9c0,0.4,0.2,0.7,0.5,0.9c0.3,0.2,0.9,0.3,1.7,0.3h2.6c1.6,0,2.8,0.3,3.6,1
		s1.3,1.6,1.3,2.9c0,1.6-0.6,2.8-1.9,3.7s-3.2,1.3-5.6,1.3c-1.9,0-3.4-0.4-4.4-1c-1-0.7-1.5-1.7-1.5-3c0-0.9,0.3-1.6,0.8-2.3
		c0.6-0.6,1.4-1.1,2.4-1.3c-0.4-0.2-0.7-0.4-0.9-0.8s-0.4-0.8-0.4-1.2c0-0.5,0.1-1,0.4-1.4s0.7-0.8,1.3-1.1
		c-0.8-0.3-1.4-0.8-1.8-1.6c-0.5-0.7-0.7-1.6-0.7-2.5c0-1.6,0.5-2.8,1.4-3.7c1-0.9,2.3-1.3,4-1.3c0.8,0,1.4,0.1,2,0.3L330.9,410.6
		L330.9,410.6z M319.4,427.5c0,0.8,0.3,1.4,1,1.8s1.6,0.6,2.8,0.6c1.8,0,3.2-0.3,4.1-0.8s1.3-1.3,1.3-2.2c0-0.8-0.2-1.3-0.7-1.6
		c-0.5-0.3-1.4-0.5-2.7-0.5h-2.6c-1,0-1.8,0.2-2.3,0.7S319.4,426.6,319.4,427.5z M320.6,415.2c0,1,0.3,1.8,0.9,2.3s1.4,0.8,2.4,0.8
		c2.1,0,3.2-1,3.2-3.1c0-2.2-1.1-3.3-3.2-3.3c-1,0-1.8,0.3-2.4,0.8S320.6,414.2,320.6,415.2z"/>
	<path class="st1" d="M343.8,425.1v-9.4c0-1.2-0.3-2.1-0.8-2.6c-0.5-0.6-1.4-0.9-2.5-0.9c-1.5,0-2.6,0.4-3.3,1.2s-1,2.2-1,4v7.6H334
		v-14.5h1.8l0.4,2h0.1c0.5-0.7,1.1-1.3,1.9-1.6c0.8-0.4,1.7-0.6,2.7-0.6c1.7,0,3,0.4,3.9,1.3s1.3,2.2,1.3,4v9.4L343.8,425.1
		L343.8,425.1z"/>
</g>
<g>
	<circle class="st2" cx="75.6" cy="40.8" r="14.6"/>
	<g>
		<path d="M70.3,31.3h5.2c2.4,0,4.1,0.4,5.2,1.2c1.1,0.8,1.7,2,1.7,3.6c0,1.1-0.3,2-1,2.8s-1.7,1.2-2.9,1.4v0.1
			c1.5,0.2,2.6,0.7,3.4,1.4c0.7,0.7,1.1,1.8,1.1,3.1c0,1.8-0.6,3.1-1.7,4s-2.8,1.4-4.9,1.4h-5.8V31.3z M71.6,39.8h4.2
			c1.8,0,3.1-0.3,3.9-0.9c0.8-0.6,1.2-1.5,1.2-2.8c0-1.3-0.5-2.2-1.4-2.8c-0.9-0.6-2.3-0.9-4.1-0.9h-3.8V39.8z M71.6,40.9v8.2h4.5
			c3.5,0,5.3-1.4,5.3-4.3c0-2.6-1.9-3.9-5.6-3.9C75.8,40.9,71.6,40.9,71.6,40.9z"/>
	</g>
</g>
<g>
	<path d="M205.7,114.1c10.8,10.8,21.1,21,31.4,31.4c-26.6,26.6-53.2,53.2-79.9,79.9c0.1,0.1,0.1,0.3,0.2,0.4c30.8,0,61.6,0,92.5,0
		c0,14.7,0,29.3,0,44c-58,0-116,0-174.1,0c0-14.6,0-29.1,0-43.9c3.2,0,6.4,0,9.6,0c3.1,0,6.4,0.7,9.1-0.3c2.6-1.1,4.4-4,6.5-6.1
		c34.5-34.5,69-69,103.4-103.4C205,115.4,205.3,114.7,205.7,114.1z"/>
	<path d="M368.4,139.5c0-14.7,0-29.2,0-43.9c12.1,0,23.6,2.3,34.7,7.2c17.3,7.6,30.8,19.5,40.4,35.8c19.1,32.4,15.1,73.5-9.6,101.6
		c-25.2,28.7-65.3,37.1-99,23c-36.1-15-54-49.6-53.7-80.3c14.6,0,29.1,0,43.8,0c0.5,14.2,6.2,25.8,17.6,34.5
		c8.6,6.5,18.4,9.1,29.1,8.4c21-1.5,38.3-18.9,39.6-40c0.8-12.4-3-23.2-11.5-32.4C391.4,144.3,380.8,139.8,368.4,139.5z"/>
	<path d="M119.7,114.1c-14.6,0-29.2,0-44.1,0c1.2-30.9,13.6-56,39.7-72.7c30.2-19.4,62-19.9,92.8-1.6c27.7,16.4,40.9,42.1,42.3,74.2
		c-14.9,0-29.5,0-44.1,0c0.2-24.9-21.9-44.3-45.6-43C140,72.2,120.2,89.2,119.7,114.1z"/>
	<path d="M312.2,144.9c-10.2-10.2-20.5-20.5-30.6-30.6c28.8-28.8,57.8-57.8,86.6-86.6c10.1,10.1,20.4,20.4,30.6,30.6
		C370.1,87,341.1,116,312.2,144.9z"/>
	<path d="M428.7,76.2c0-16.5,0-32.8,0-49.3c3.1,0,6.1,0,9.2,0c0,8.9,0,17.8,0,27.1c0.6-0.6,1-0.8,1.3-1.2c3.5-3.7,6.9-7.4,10.4-11.1
		c0.3-0.4,0.8-0.9,1.2-0.9c3.5-0.1,7,0,10.9,0c-4.6,4.7-8.8,9.1-13.1,13.5c4.9,7.3,9.7,14.5,14.7,22.1c-2.5,0-4.7-0.2-6.9,0.1
		c-3.3,0.4-5.3-0.7-6.9-3.8c-2.2-4.2-4.9-8.2-7.6-12.5c-2,2.2-4.7,3.7-4.2,7.4c0.4,2.8,0.1,5.7,0.1,8.6
		C434.8,76.2,431.7,76.2,428.7,76.2z"/>
	<path d="M276.9,245.6c6.9,0,12.4,5.6,12.4,12.5c0,6.9-5.6,12.4-12.5,12.4c-6.8,0-12.4-5.7-12.4-12.5
		C264.4,251.1,270,245.5,276.9,245.6z"/>
</g>
</svg>
