<svg id="Layer_1" data-name="Layer 1" xmlns="http://www.w3.org/2000/svg" viewBox="0 0 144 144"><defs><style>.cls-1{fill:none;stroke:#fff;stroke-miterlimit:10;stroke-width:3px;}.cls-2{fill:#fff;}</style></defs><circle class="cls-1" cx="72" cy="71.76" r="67.35"/><line class="cls-1" x1="4.65" y1="71.34" x2="138.51" y2="71.34"/><path class="cls-2" d="M72.41,52.08H70.19V37.77c0-1.19,0-2.32.11-3.38-.2.19-.41.39-.65.6s-1.33,1.1-3.27,2.68L65.17,36.1,70.49,32h1.92Z"/><path class="cls-2" d="M58.49,107.1,56,100.76H48l-2.45,6.34H43.22l7.88-20h1.95l7.84,20Zm-3.2-8.42L53,92.5c-.3-.78-.61-1.73-.93-2.87a24.16,24.16,0,0,1-.86,2.87l-2.34,6.18Z"/><path class="cls-2" d="M67.92,107.1h-2.2V92.9c0-1.18,0-2.3.1-3.35-.19.19-.4.39-.64.6s-1.31,1.09-3.24,2.65l-1.2-1.55L66,87.18h1.91Z"/><path class="cls-2" d="M81.17,107.1H79V92.9c0-1.18,0-2.3.1-3.35-.19.19-.4.39-.64.6s-1.31,1.09-3.24,2.65L74,91.25l5.27-4.07h1.91Z"/><path class="cls-2" d="M97.13,107.1H94.92V92.9c0-1.18,0-2.3.11-3.35-.19.19-.4.39-.64.6s-1.32,1.09-3.24,2.65L90,91.25l5.27-4.07h1.91Z"/></svg>