<svg id="Layer_1" data-name="Layer 1" xmlns="http://www.w3.org/2000/svg" viewBox="0 0 144 144"><defs><style>.cls-1{fill:none;stroke:#fff;stroke-miterlimit:10;stroke-width:3px;}.cls-2{fill:#fff;}</style></defs><circle class="cls-1" cx="73.1" cy="71.76" r="67.35"/><line class="cls-1" x1="5.76" y1="71.34" x2="139.62" y2="71.34"/><path class="cls-2" d="M73.52,52.08H71.29V37.77c0-1.19,0-2.32.11-3.38-.19.19-.41.39-.65.6s-1.33,1.1-3.27,2.68L66.27,36.1,71.59,32h1.93Z"/><path class="cls-2" d="M58.83,106.82l-2.5-6.39h-8l-2.48,6.39H43.44l7.94-20.17h2l7.9,20.17ZM55.6,98.33,53.27,92.1a29.42,29.42,0,0,1-.94-2.9,26.55,26.55,0,0,1-.86,2.9L49.1,98.33Z"/><path class="cls-2" d="M68.26,106.82H66V92.5c0-1.19,0-2.32.11-3.38-.19.19-.4.4-.64.61s-1.33,1.1-3.27,2.68L61,90.84l5.32-4.11h1.92Z"/><path class="cls-2" d="M86.4,96.75q0,5.2-1.64,7.78a6.06,6.06,0,0,1-10-.07c-1.12-1.75-1.69-4.32-1.69-7.71s.55-6.1,1.64-7.79a6.07,6.07,0,0,1,10,.11C85.84,90.84,86.4,93.4,86.4,96.75Zm-11,0a14.81,14.81,0,0,0,1,6.38,3.7,3.7,0,0,0,6.59,0,14.84,14.84,0,0,0,1-6.35,14.72,14.72,0,0,0-1-6.34,3.71,3.71,0,0,0-6.59,0A14.72,14.72,0,0,0,75.42,96.75Z"/><path class="cls-2" d="M103.33,102.2h-3v4.62H98.16V102.2H88.39v-2l9.54-13.59h2.42v13.51h3Zm-5.17-2.07V93.45c0-1.31,0-2.79.14-4.44h-.11A22.08,22.08,0,0,1,97,91.2l-6.28,8.93Z"/></svg>