<svg id="Layer_1" data-name="Layer 1" xmlns="http://www.w3.org/2000/svg" viewBox="0 0 144 144"><defs><style>.cls-1{fill:none;stroke:#fff;stroke-miterlimit:10;stroke-width:3px;}.cls-2{fill:#fff;}</style></defs><circle class="cls-1" cx="72" cy="71.76" r="67.35"/><line class="cls-1" x1="4.65" y1="71.34" x2="138.51" y2="71.34"/><path class="cls-2" d="M72.41,52.08H70.19V37.77c0-1.19,0-2.32.11-3.38-.2.19-.41.39-.65.6s-1.33,1.1-3.27,2.68L65.17,36.1,70.49,32h1.92Z"/><path class="cls-2" d="M57.6,105.79l-2.48-6.33h-8l-2.45,6.33H42.34l7.87-20h1.95l7.84,20Zm-3.2-8.42L52.08,91.2c-.3-.78-.61-1.74-.92-2.88a26.31,26.31,0,0,1-.86,2.88L48,97.37Z"/><path class="cls-2" d="M67,105.79H64.83V91.59c0-1.18,0-2.29.11-3.35-.19.19-.41.39-.64.6S63,89.94,61.05,91.5L59.85,90l5.28-4.08H67Z"/><path class="cls-2" d="M80.29,105.79H78.08V91.59c0-1.18,0-2.29.11-3.35-.19.19-.41.39-.64.6s-1.32,1.1-3.25,2.66L73.1,90l5.28-4.08h1.91Z"/><path class="cls-2" d="M101,105.79H87.86v-1.94l5.25-5.28a39.1,39.1,0,0,0,3.16-3.46,8.91,8.91,0,0,0,1.15-2A5.86,5.86,0,0,0,97.8,91a3.39,3.39,0,0,0-1-2.53,3.73,3.73,0,0,0-2.69-.93,6.83,6.83,0,0,0-2.35.41,9.49,9.49,0,0,0-2.47,1.48l-1.2-1.54a9.24,9.24,0,0,1,6-2.29A6.32,6.32,0,0,1,98.52,87a5,5,0,0,1,1.59,3.87,7.41,7.41,0,0,1-1.06,3.74,23.53,23.53,0,0,1-4,4.69l-4.36,4.27v.11H101Z"/></svg>