<svg id="Layer_1" data-name="Layer 1" xmlns="http://www.w3.org/2000/svg" viewBox="0 0 144 144"><defs><style>.cls-1{fill:none;stroke:#fff;stroke-miterlimit:10;stroke-width:3px;}.cls-2{fill:#fff;}</style></defs><circle class="cls-1" cx="71.55" cy="71.76" r="67.35"/><line class="cls-1" x1="4.21" y1="71.34" x2="138.07" y2="71.34"/><path class="cls-2" d="M72,52.08H69.74V37.77c0-1.19,0-2.32.11-3.38-.19.19-.41.39-.64.6s-1.33,1.1-3.28,2.68l-1.2-1.57L70,32H72Z"/><path class="cls-2" d="M57.28,106.82l-2.5-6.39H46.73l-2.47,6.39H41.89l7.94-20.17h2l7.9,20.17Zm-3.23-8.49L51.72,92.1c-.3-.78-.62-1.75-.94-2.9a26.55,26.55,0,0,1-.86,2.9l-2.37,6.23Z"/><path class="cls-2" d="M66.71,106.82H64.49V92.5c0-1.19,0-2.32.11-3.38-.2.19-.41.4-.65.61s-1.33,1.1-3.27,2.68l-1.21-1.57,5.32-4.11h1.92Z"/><path class="cls-2" d="M84.85,96.75c0,3.47-.54,6.06-1.64,7.78a5.55,5.55,0,0,1-5,2.57,5.49,5.49,0,0,1-4.93-2.64q-1.7-2.62-1.69-7.71,0-5.25,1.63-7.79a6.08,6.08,0,0,1,10,.11Q84.86,91.73,84.85,96.75Zm-11,0a14.81,14.81,0,0,0,1,6.38,3.47,3.47,0,0,0,3.29,2,3.43,3.43,0,0,0,3.3-2,14.68,14.68,0,0,0,1-6.35,14.57,14.57,0,0,0-1-6.34,3.71,3.71,0,0,0-6.59,0A14.72,14.72,0,0,0,73.87,96.75Z"/><path class="cls-2" d="M93.91,94.55a7.35,7.35,0,0,1,5,1.57,5.39,5.39,0,0,1,1.82,4.31,6.22,6.22,0,0,1-2,4.89,8,8,0,0,1-5.48,1.78A10.11,10.11,0,0,1,88.08,106v-2.2a7.85,7.85,0,0,0,2.39,1,12.09,12.09,0,0,0,2.82.35A5.63,5.63,0,0,0,97.05,104a4.1,4.1,0,0,0,1.34-3.3q0-4.2-5.15-4.2a20,20,0,0,0-3.49.4l-1.19-.76.76-9.4h10v2.1h-8l-.51,6A16.11,16.11,0,0,1,93.91,94.55Z"/></svg>