<svg id="Layer_1" data-name="Layer 1" xmlns="http://www.w3.org/2000/svg" viewBox="0 0 144 144"><defs><style>.cls-1{fill:none;stroke:#fff;stroke-miterlimit:10;stroke-width:3px;}.cls-2{fill:#fff;}</style></defs><circle class="cls-1" cx="72" cy="71.76" r="67.35"/><line class="cls-1" x1="4.65" y1="71.34" x2="138.51" y2="71.34"/><path class="cls-2" d="M72.41,52.08H70.19V37.77c0-1.19,0-2.32.11-3.38-.2.19-.41.39-.65.6s-1.33,1.1-3.27,2.68L65.17,36.1,70.49,32h1.92Z"/><path class="cls-2" d="M57.6,106.82l-2.48-6.34h-8l-2.46,6.34H42.34l7.88-20h1.94l7.84,20ZM54.4,98.4l-2.32-6.17c-.3-.79-.61-1.74-.92-2.88a27,27,0,0,1-.86,2.88L48,98.4Z"/><path class="cls-2" d="M67,106.82H64.83V92.62c0-1.18,0-2.3.11-3.35-.19.19-.41.39-.64.6S63,91,61.05,92.53L59.85,91l5.28-4.07H67Z"/><path class="cls-2" d="M85.11,96.83q0,5.17-1.63,7.71a6,6,0,0,1-9.87-.06q-1.68-2.61-1.68-7.65c0-3.47.54-6,1.62-7.73a6,6,0,0,1,9.88.11Q85.11,91.85,85.11,96.83Zm-10.89,0a14.61,14.61,0,0,0,1,6.33,3.68,3.68,0,0,0,6.54,0,14.82,14.82,0,0,0,1-6.3,14.73,14.73,0,0,0-1-6.29,3.69,3.69,0,0,0-6.54,0A14.47,14.47,0,0,0,74.22,96.83Z"/><path class="cls-2" d="M101,95.4q0,11.7-9,11.69a9.35,9.35,0,0,1-2.51-.27v-1.95a7.94,7.94,0,0,0,2.48.36,6,6,0,0,0,4.94-2c1.12-1.35,1.72-3.42,1.82-6.2h-.16a4.89,4.89,0,0,1-2,1.72,6.48,6.48,0,0,1-2.79.59,5.58,5.58,0,0,1-4.2-1.58A6,6,0,0,1,88,93.32a6.75,6.75,0,0,1,1.73-4.91,6.65,6.65,0,0,1,8.12-.76,6.55,6.55,0,0,1,2.34,3A12.28,12.28,0,0,1,101,95.4Zm-6.71-6.85a3.73,3.73,0,0,0-3,1.25,5.24,5.24,0,0,0-1.06,3.49,4.56,4.56,0,0,0,1,3.09,3.8,3.8,0,0,0,3,1.12,5.28,5.28,0,0,0,2.28-.5,4.2,4.2,0,0,0,1.64-1.38,3.17,3.17,0,0,0,.6-1.83,6.28,6.28,0,0,0-.56-2.64,4.55,4.55,0,0,0-1.56-1.91A4,4,0,0,0,94.25,88.55Z"/></svg>