<svg id="Layer_1" data-name="Layer 1" xmlns="http://www.w3.org/2000/svg" viewBox="0 0 144 144"><defs><style>.cls-1{fill:none;stroke:#fff;stroke-miterlimit:10;stroke-width:3px;}.cls-2{fill:#fff;}</style></defs><circle class="cls-1" cx="72.21" cy="71.76" r="67.35"/><line class="cls-1" x1="4.87" y1="71.34" x2="138.73" y2="71.34"/><path class="cls-2" d="M72.63,52.08H70.4V37.77c0-1.19,0-2.32.11-3.38-.19.19-.41.39-.65.6s-1.32,1.1-3.27,2.68L65.38,36.1,70.7,32h1.93Z"/><path class="cls-2" d="M57.94,106.82l-2.5-6.39h-8l-2.48,6.39H42.55l7.94-20.17h2l7.9,20.17Zm-3.23-8.49L52.38,92.1a29.42,29.42,0,0,1-.94-2.9,26.55,26.55,0,0,1-.86,2.9l-2.37,6.23Z"/><path class="cls-2" d="M67.37,106.82H65.14V92.5c0-1.19,0-2.32.11-3.38-.19.19-.4.4-.64.61s-1.33,1.1-3.27,2.68l-1.21-1.57,5.32-4.11h1.92Z"/><path class="cls-2" d="M85.51,96.75q0,5.2-1.64,7.78a6.06,6.06,0,0,1-10-.07c-1.12-1.75-1.69-4.32-1.69-7.71s.55-6.1,1.64-7.79a6.08,6.08,0,0,1,10,.11Q85.52,91.73,85.51,96.75Zm-11,0a14.81,14.81,0,0,0,1,6.38,3.7,3.7,0,0,0,6.59,0,14.84,14.84,0,0,0,1-6.35,14.72,14.72,0,0,0-1-6.34,3.71,3.71,0,0,0-6.59,0A14.72,14.72,0,0,0,74.53,96.75Z"/><path class="cls-2" d="M101.49,106.82H88.29v-2l5.29-5.32a41.53,41.53,0,0,0,3.19-3.49,9.24,9.24,0,0,0,1.15-2,5.76,5.76,0,0,0,.39-2.13,3.35,3.35,0,0,0-1-2.54,3.73,3.73,0,0,0-2.71-1,6.72,6.72,0,0,0-2.37.42,9.36,9.36,0,0,0-2.49,1.49l-1.21-1.55a9.25,9.25,0,0,1,6-2.31A6.41,6.41,0,0,1,99,87.89a5,5,0,0,1,1.61,3.9,7.59,7.59,0,0,1-1.07,3.78,24.18,24.18,0,0,1-4,4.72l-4.4,4.3v.11h10.33Z"/></svg>