<svg id="Layer_1" data-name="Layer 1" xmlns="http://www.w3.org/2000/svg" viewBox="0 0 144 144"><defs><style>.cls-1{fill:none;stroke:#fff;stroke-miterlimit:10;stroke-width:3px;}.cls-2{fill:#fff;}</style></defs><circle class="cls-1" cx="72" cy="71.76" r="67.35"/><line class="cls-1" x1="4.65" y1="71.34" x2="138.51" y2="71.34"/><path class="cls-2" d="M72.41,52.08H70.19V37.77c0-1.19,0-2.32.11-3.38-.2.19-.41.39-.65.6s-1.33,1.1-3.27,2.68L65.17,36.1,70.49,32h1.92Z"/><path class="cls-2" d="M57.6,106.82l-2.48-6.34h-8l-2.46,6.34H42.34l7.88-20h1.94l7.84,20ZM54.4,98.4l-2.32-6.17c-.3-.79-.61-1.74-.92-2.88a27,27,0,0,1-.86,2.88L48,98.4Z"/><path class="cls-2" d="M67,106.82H64.83V92.62c0-1.18,0-2.3.11-3.35-.19.19-.41.39-.64.6S63,91,61.05,92.53L59.85,91l5.28-4.07H67Z"/><path class="cls-2" d="M85.11,96.83q0,5.17-1.63,7.71a6,6,0,0,1-9.87-.06q-1.68-2.61-1.68-7.65c0-3.47.54-6,1.62-7.73a6,6,0,0,1,9.88.11Q85.11,91.85,85.11,96.83Zm-10.89,0a14.61,14.61,0,0,0,1,6.33,3.68,3.68,0,0,0,6.54,0,14.82,14.82,0,0,0,1-6.3,14.73,14.73,0,0,0-1-6.29,3.69,3.69,0,0,0-6.54,0A14.47,14.47,0,0,0,74.22,96.83Z"/><path class="cls-2" d="M94.46,86.61a6.71,6.71,0,0,1,4.32,1.27,4.22,4.22,0,0,1,1.59,3.5,4.37,4.37,0,0,1-.91,2.69,8.11,8.11,0,0,1-2.92,2.2A9.87,9.87,0,0,1,100,98.71a4.58,4.58,0,0,1,1,3,4.9,4.9,0,0,1-1.73,4,7,7,0,0,1-4.74,1.48,7.57,7.57,0,0,1-4.9-1.39,4.8,4.8,0,0,1-1.72-4q0-3.42,4.17-5.33a7.54,7.54,0,0,1-2.7-2.3,4.84,4.84,0,0,1-.82-2.76,4.2,4.2,0,0,1,1.6-3.45A6.65,6.65,0,0,1,94.46,86.61Zm-4.31,15.18a3.09,3.09,0,0,0,1.14,2.55,5,5,0,0,0,3.2.91,4.75,4.75,0,0,0,3.16-1,3.26,3.26,0,0,0,1.13-2.62,3.22,3.22,0,0,0-1.06-2.35,10.93,10.93,0,0,0-3.71-2,8,8,0,0,0-2.94,1.92A3.75,3.75,0,0,0,90.15,101.79Zm4.28-13.34a4,4,0,0,0-2.67.82,2.72,2.72,0,0,0-1,2.18,3.09,3.09,0,0,0,.81,2.15,8.28,8.28,0,0,0,3,1.8,7.33,7.33,0,0,0,2.76-1.76,3.23,3.23,0,0,0,.81-2.19,2.68,2.68,0,0,0-1-2.19A4.16,4.16,0,0,0,94.43,88.45Z"/></svg>