<svg id="Layer_1" data-name="Layer 1" xmlns="http://www.w3.org/2000/svg" viewBox="0 0 144 144"><defs><style>.cls-1{fill:none;stroke:#fff;stroke-miterlimit:10;stroke-width:3px;}.cls-2{fill:#fff;}</style></defs><circle class="cls-1" cx="72" cy="71.76" r="67.35"/><line class="cls-1" x1="4.65" y1="71.34" x2="138.51" y2="71.34"/><path class="cls-2" d="M72.41,52.08H70.19V37.77c0-1.19,0-2.32.11-3.38-.2.19-.41.39-.65.6s-1.33,1.1-3.27,2.68L65.17,36.1,70.49,32h1.92Z"/><path class="cls-2" d="M57.73,106.82l-2.5-6.39h-8l-2.48,6.39H42.34l7.94-20.17h2l7.9,20.17ZM54.5,98.33,52.16,92.1c-.3-.78-.61-1.75-.93-2.9a24.68,24.68,0,0,1-.87,2.9L48,98.33Z"/><path class="cls-2" d="M67.16,106.82H64.93V92.5c0-1.19,0-2.32.11-3.38l-.64.61c-.24.21-1.33,1.1-3.27,2.68l-1.21-1.57,5.31-4.11h1.93Z"/><path class="cls-2" d="M85.3,96.75q0,5.2-1.64,7.78a5.56,5.56,0,0,1-5,2.57,5.5,5.5,0,0,1-4.94-2.64Q72,101.84,72,96.75,72,91.5,73.65,89a6.07,6.07,0,0,1,9.95.11Q85.3,91.73,85.3,96.75Zm-11,0q0,4.38,1,6.38a3.7,3.7,0,0,0,6.59,0,14.86,14.86,0,0,0,1-6.35,14.75,14.75,0,0,0-1-6.34,3.71,3.71,0,0,0-6.59,0C74.66,91.7,74.32,93.83,74.32,96.75Z"/><path class="cls-2" d="M88.31,98.23q0-5.92,2.3-8.85t6.81-2.94a9.33,9.33,0,0,1,2.45.26v2a7.86,7.86,0,0,0-2.42-.34,6.12,6.12,0,0,0-4.94,2q-1.7,2-1.87,6.33h.17a5.26,5.26,0,0,1,4.78-2.37,5.62,5.62,0,0,1,4.27,1.64,6.17,6.17,0,0,1,1.56,4.44,6.84,6.84,0,0,1-1.71,4.92,6.08,6.08,0,0,1-4.63,1.8,5.93,5.93,0,0,1-4.94-2.35A10.34,10.34,0,0,1,88.31,98.23Zm6.75,6.93a3.82,3.82,0,0,0,3-1.23,5.28,5.28,0,0,0,1.07-3.55,4.59,4.59,0,0,0-1-3.14,3.78,3.78,0,0,0-3-1.14,5,5,0,0,0-2.27.51A4.16,4.16,0,0,0,91.26,98a3.26,3.26,0,0,0-.62,1.86,6.5,6.5,0,0,0,.55,2.64,4.67,4.67,0,0,0,1.56,1.93A3.89,3.89,0,0,0,95.06,105.16Z"/></svg>