<svg id="Layer_1" data-name="Layer 1" xmlns="http://www.w3.org/2000/svg" viewBox="0 0 144 144"><defs><style>.cls-1{fill:none;stroke:#fff;stroke-miterlimit:10;stroke-width:3px;}.cls-2{fill:#fff;}</style></defs><circle class="cls-1" cx="72" cy="71.76" r="67.35"/><line class="cls-1" x1="4.65" y1="71.34" x2="138.51" y2="71.34"/><path class="cls-2" d="M72.41,52.08H70.19V37.77c0-1.19,0-2.32.11-3.38-.2.19-.41.39-.65.6s-1.33,1.1-3.27,2.68L65.17,36.1,70.49,32h1.92Z"/><path class="cls-2" d="M57.6,106.82l-2.48-6.34h-8l-2.45,6.34H42.34l7.87-20h1.95l7.84,20ZM54.4,98.4l-2.32-6.17c-.3-.79-.61-1.74-.92-2.88a29.51,29.51,0,0,1-.86,2.88L48,98.4Z"/><path class="cls-2" d="M67,106.82H64.83V92.62c0-1.18,0-2.3.11-3.35-.19.19-.41.39-.64.6S63,91,61.05,92.53L59.85,91l5.28-4.07H67Z"/><path class="cls-2" d="M80.29,106.82H78.08V92.62c0-1.18,0-2.3.11-3.35-.19.19-.41.39-.64.6S76.23,91,74.3,92.53L73.1,91l5.28-4.07h1.91Z"/><path class="cls-2" d="M101.07,96.83c0,3.45-.55,6-1.63,7.71a5.51,5.51,0,0,1-5,2.55,5.44,5.44,0,0,1-4.89-2.61q-1.68-2.61-1.68-7.65c0-3.47.54-6,1.62-7.73a6,6,0,0,1,9.87.11Q101.08,91.85,101.07,96.83Zm-10.89,0a14.61,14.61,0,0,0,1,6.33,3.68,3.68,0,0,0,6.54,0,14.82,14.82,0,0,0,1-6.3,14.73,14.73,0,0,0-1-6.29,3.69,3.69,0,0,0-6.54,0A14.47,14.47,0,0,0,90.18,96.83Z"/></svg>