<svg id="Layer_1" data-name="Layer 1" xmlns="http://www.w3.org/2000/svg" viewBox="0 0 144 144"><defs><style>.cls-1{fill:none;stroke:#fff;stroke-miterlimit:10;stroke-width:3px;}.cls-2{fill:#fff;}</style></defs><circle class="cls-1" cx="72.2" cy="71.76" r="67.35"/><line class="cls-1" x1="4.86" y1="71.34" x2="138.72" y2="71.34"/><path class="cls-2" d="M72.62,52.08H70.39V37.77c0-1.19,0-2.32.11-3.38-.19.19-.41.39-.65.6s-1.32,1.1-3.27,2.68L65.37,36.1,70.69,32h1.93Z"/><path class="cls-2" d="M57.93,106.82l-2.5-6.39h-8l-2.48,6.39H42.54l7.94-20.17h2l7.9,20.17ZM54.7,98.33,52.37,92.1a29.42,29.42,0,0,1-.94-2.9,26.55,26.55,0,0,1-.86,2.9L48.2,98.33Z"/><path class="cls-2" d="M67.36,106.82H65.13V92.5c0-1.19,0-2.32.11-3.38-.19.19-.4.4-.64.61s-1.33,1.1-3.27,2.68l-1.21-1.57,5.32-4.11h1.92Z"/><path class="cls-2" d="M85.5,96.75q0,5.2-1.64,7.78a6.06,6.06,0,0,1-10-.07c-1.12-1.75-1.69-4.32-1.69-7.71s.55-6.1,1.64-7.79a6.07,6.07,0,0,1,10,.11C84.94,90.84,85.5,93.4,85.5,96.75Zm-11,0a14.81,14.81,0,0,0,1,6.38,3.7,3.7,0,0,0,6.59,0,14.84,14.84,0,0,0,1-6.35,14.72,14.72,0,0,0-1-6.34,3.71,3.71,0,0,0-6.59,0A14.72,14.72,0,0,0,74.52,96.75Z"/><path class="cls-2" d="M100.73,91.46a4.56,4.56,0,0,1-1.08,3.14,5.36,5.36,0,0,1-3.06,1.64v.11a5.73,5.73,0,0,1,3.59,1.54,4.51,4.51,0,0,1,1.17,3.24,5.26,5.26,0,0,1-2,4.42,9.06,9.06,0,0,1-5.66,1.55,16.51,16.51,0,0,1-2.92-.24A10.07,10.07,0,0,1,88.2,106v-2.17a13.25,13.25,0,0,0,5.57,1.32c3.48,0,5.21-1.36,5.21-4.08q0-3.66-5.74-3.66h-2v-2h2a6.06,6.06,0,0,0,3.72-1,3.39,3.39,0,0,0,1.37-2.88,2.82,2.82,0,0,0-1-2.31,4.14,4.14,0,0,0-2.74-.84,8.31,8.31,0,0,0-2.48.36,11.28,11.28,0,0,0-2.67,1.32l-1.15-1.54A9.5,9.5,0,0,1,91.16,87a10.36,10.36,0,0,1,3.4-.56,7,7,0,0,1,4.55,1.34A4.53,4.53,0,0,1,100.73,91.46Z"/></svg>