<svg width="95" height="25" viewBox="0 0 95 25" fill="none" xmlns="http://www.w3.org/2000/svg">
<path d="M17.7469 19.7487H14.7307L12.9803 14.7666H4.68582L2.90844 19.7487H0L7.08259 0.897665H10.7989L17.7469 19.7487ZM7.40575 7.17235L5.57451 12.289H12.0916L10.2873 7.17235C9.56014 5.04488 9.15619 3.91382 8.85996 3.13285C8.56373 3.91382 8.13285 5.17953 7.40575 7.17235Z" fill="black"/>
<path d="M22.9553 25H20.4239V6.39138H22.8745V8.41113C23.5208 7.307 24.8673 6.01436 27.2102 6.01436C30.361 6.01436 32.677 8.68043 32.677 13.07C32.677 17.4327 30.361 20.1257 27.2102 20.1257C24.8673 20.1257 23.6016 18.833 22.9553 17.7289V25ZM26.4831 17.9713C28.5567 17.9713 30.0648 16.6517 30.0648 13.0431C30.0648 9.40754 28.5567 8.16876 26.4831 8.16876C24.3556 8.16876 22.8206 9.75763 22.8206 13.0431C22.8206 16.3285 24.3556 17.9713 26.4831 17.9713Z" fill="black"/>
<path d="M43.9634 19.7487H40.6779C38.4697 19.7487 37.3117 18.6715 37.3117 16.4632V8.49192H34.2686V6.39138H37.3117V2.21723H39.8431V6.39138H43.4517V8.49192H39.8431V16.2478C39.8431 17.1634 40.2471 17.5673 41.1627 17.5673H43.9634V19.7487Z" fill="black"/>
<path d="M65.7296 19.7487H53.0994V16.7864C58.3507 13.5548 62.6865 10.4309 62.6865 6.66068C62.6865 4.21005 61.1245 2.94434 59.2664 2.94434C57.2197 2.94434 55.6577 4.42549 55.6577 7.09156L52.9378 6.71454C52.9647 3.13285 55.3615 0.520645 59.2933 0.520645C63.1981 0.520645 65.5141 2.9982 65.5141 6.36445C65.5141 8.3842 64.8139 10.1077 63.5213 11.6158C61.9055 13.474 59.401 15.2513 56.0617 17.2711H65.7296V19.7487Z" fill="black"/>
<path d="M79.4634 19.7487H76.8512V14.632H67.9913V12.1275L75.4509 0.897665H79.4634V12.3698H82.2372V14.632H79.4634V19.7487ZM76.8512 12.3698V3.02513L70.6573 12.3698H76.8512Z" fill="black"/>
<path d="M88.425 19.7487H84.978V16.2478H88.425V19.7487Z" fill="black"/>
<path d="M86.9479 4.71275H86.2747V0.61939H84.605V0H88.6647V0.61939H86.9479V4.71275Z" fill="black"/>
<path d="M90.0789 4.71275H89.4056V0H90.503L91.5869 2.69973C91.8158 3.28546 91.8966 3.47397 91.9438 3.58842C91.9909 3.47397 92.0717 3.27873 92.3006 2.69973L93.3576 0H94.428V4.71275H93.7548V0.686715L92.1659 4.71275H91.6879L90.0789 0.686715V4.71275Z" fill="black"/>
</svg>
