<svg width="142" height="61" viewBox="0 0 142 61" fill="none" xmlns="http://www.w3.org/2000/svg">
<rect width="142" height="61" fill="url(#paint0_radial_7_25)"/>
<path d="M107.045 17.1875V2.35794H107.864V17.1875H107.045ZM100.04 10.1818V9.36362H114.869V10.1818H100.04Z" fill="white"/>
<path d="M129.967 17.1875V2.35794H130.786V17.1875H129.967ZM122.962 10.1818V9.36362H137.791V10.1818H122.962Z" fill="white"/>
<path d="M130.045 37.1875V22.3579H130.864V37.1875H130.045ZM123.04 30.1818V29.3636H137.869V30.1818H123.04Z" fill="white"/>
<path d="M11.0503 20.9116C10.9474 19.8766 10.4904 19.0535 9.67941 18.4422C8.86838 17.8309 7.84854 17.5252 6.61989 17.5252C5.75438 17.5252 4.99177 17.6735 4.33205 17.9701C3.67839 18.2666 3.16393 18.6782 2.78867 19.2048C2.41947 19.7253 2.23487 20.3184 2.23487 20.9842C2.23487 21.4745 2.34079 21.9042 2.55263 22.2734C2.76446 22.6426 3.04893 22.9603 3.40603 23.2266C3.76917 23.4869 4.16864 23.7108 4.60441 23.8985C5.04624 24.0861 5.4911 24.2435 5.93898 24.3706L7.89998 24.9334C8.49313 25.0969 9.08627 25.3057 9.67941 25.5599C10.2726 25.8141 10.8142 26.1349 11.3045 26.5222C11.8008 26.9035 12.1972 27.3726 12.4938 27.9294C12.7964 28.4802 12.9477 29.1429 12.9477 29.9177C12.9477 30.9103 12.6905 31.803 12.1761 32.5959C11.6616 33.3887 10.9232 34.0182 9.96085 34.4842C8.99851 34.9442 7.84551 35.1742 6.50186 35.1742C5.2369 35.1742 4.13837 34.9654 3.20629 34.5478C2.27421 34.1241 1.54187 33.5401 1.00925 32.7956C0.476632 32.0511 0.177035 31.1887 0.110458 30.2082H1.85357C1.91409 30.9405 2.15619 31.5609 2.57986 32.0693C3.00354 32.5777 3.55431 32.9651 4.23219 33.2314C4.91006 33.4916 5.66662 33.6218 6.50186 33.6218C7.42789 33.6218 8.25103 33.4674 8.97127 33.1587C9.69757 32.844 10.2665 32.4082 10.6781 31.8514C11.0957 31.2885 11.3045 30.6349 11.3045 29.8904C11.3045 29.261 11.1411 28.7344 10.8142 28.3107C10.4874 27.881 10.0305 27.5209 9.44336 27.2304C8.86233 26.9398 8.18748 26.6826 7.41881 26.4587L5.19453 25.805C3.73589 25.3692 2.60407 24.767 1.7991 23.9983C0.994118 23.2297 0.591629 22.2492 0.591629 21.0568C0.591629 20.0582 0.857937 19.1806 1.39055 18.424C1.92922 17.6614 2.65552 17.0683 3.56944 16.6446C4.48942 16.2149 5.52136 16 6.66528 16C7.8213 16 8.84417 16.2118 9.73388 16.6355C10.6236 17.0592 11.3287 17.6432 11.8492 18.3877C12.3758 19.1261 12.6572 19.9674 12.6935 20.9116H11.0503Z" fill="white"/>
<path d="M17.0604 34.8565H15.281L22.0446 16.2633H23.8603L30.624 34.8565H28.8445L23.016 18.4694H22.8889L17.0604 34.8565ZM18.3405 27.7297H27.5644V29.2549H18.3405V27.7297Z" fill="white"/>
<path d="M33.8106 34.8565V16.2633H35.5083V33.3312H44.3691V34.8565H33.8106Z" fill="white"/>
<path d="M60.5837 16.2633H62.2814V28.574C62.2814 29.839 61.9848 30.9708 61.3917 31.9694C60.7985 32.962 59.9724 33.7458 58.9132 34.3208C57.8601 34.8898 56.6345 35.1742 55.2363 35.1742C53.8443 35.1742 52.6186 34.8867 51.5595 34.3117C50.5003 33.7368 49.6741 32.953 49.081 31.9604C48.4878 30.9678 48.1913 29.839 48.1913 28.574V16.2633H49.889V28.456C49.889 29.4425 50.1099 30.3232 50.5517 31.0979C50.9936 31.8665 51.6139 32.4718 52.4129 32.9136C53.2178 33.3555 54.159 33.5764 55.2363 33.5764C56.3137 33.5764 57.2548 33.3555 58.0598 32.9136C58.8648 32.4718 59.4852 31.8665 59.9209 31.0979C60.3628 30.3232 60.5837 29.4425 60.5837 28.456V16.2633Z" fill="white"/>
<path d="M66.0899 17.7885V16.2633H79.5718V17.7885H73.6797V34.8565H71.982V17.7885H66.0899Z" fill="white"/>
<path d="M0.0196706 60.4221V57.8944L10.0713 43.7907H0V40.2795H15.4217V42.8071L5.36022 56.9109H15.4414V60.4221H0.0196706Z" fill="white"/>
<path d="M22.9678 40.2795V60.4221H18.7091V40.2795H22.9678Z" fill="white"/>
<path d="M26.4716 40.2795H31.7236L37.2707 53.8128H37.5068L43.0538 40.2795H48.3059V60.4221H44.1751V47.3117H44.0079L38.7952 60.3237H35.9823L30.7696 47.2625H30.6024V60.4221H26.4716V40.2795Z" fill="white"/>
<path d="M51.8146 40.2795H57.0666L62.6137 53.8128H62.8498L68.3969 40.2795H73.6489V60.4221H69.5181V47.3117H69.3509L64.1382 60.3237H61.3253L56.1126 47.2625H55.9454V60.4221H51.8146V40.2795Z" fill="white"/>
<path d="M77.1576 60.4221V40.2795H90.7303V43.7907H81.4163V48.5903H90.032V52.1015H81.4163V56.9109H90.7696V60.4221H77.1576Z" fill="white"/>
<path d="M94.1161 60.4221V40.2795H102.063C103.584 40.2795 104.882 40.5516 105.958 41.0958C107.04 41.6335 107.862 42.3973 108.426 43.3874C108.997 44.3709 109.282 45.5282 109.282 46.8593C109.282 48.1969 108.994 49.3476 108.417 50.3114C107.84 51.2687 107.004 52.0031 105.909 52.5145C104.82 53.026 103.502 53.2817 101.955 53.2817H96.6339V49.859H101.266C102.079 49.859 102.755 49.7476 103.292 49.5246C103.83 49.3017 104.23 48.9673 104.492 48.5214C104.761 48.0756 104.896 47.5215 104.896 46.8593C104.896 46.1905 104.761 45.6266 104.492 45.1676C104.23 44.7086 103.827 44.3611 103.283 44.1251C102.745 43.8825 102.066 43.7612 101.247 43.7612H98.3747V60.4221H94.1161ZM104.994 51.2556L110 60.4221H105.299L100.401 51.2556H104.994Z" fill="white"/>
<defs>
<radialGradient id="paint0_radial_7_25" cx="0" cy="0" r="1" gradientUnits="userSpaceOnUse" gradientTransform="translate(71 30.5) rotate(90) scale(30.5 71)">
<stop stop-color="#B80000"/>
<stop offset="1" stop-color="#DB0606"/>
</radialGradient>
</defs>
</svg>
